<svg viewBox="0 0 394 397.12" xmlns="http://www.w3.org/2000/svg"><path d="m22.68 112.11c8 24.45 15.57 49.05 24.12 73.31 12.06 34.21 15.35 69.85 19.49 105.58 1.07 9.28 20.62 105 18.89 105.45 79.62-20.39 158.33-44.25 235.08-73.72 5.46-2.1 77.3-27.93 77.42-26.28-2.62-34.76-34.43-87.88-54.8-139.51-28.15-71.35-46.75-138.56-46.76-138.58.73 2.62-23.69 16.82-25.73 18.08-17.14 10.62-36 18.28-54.42 26.44-60.83 26.95-126.25 47.06-193.29 49.23z" fill="#1182c1" stroke="#000" stroke-linejoin="round" stroke-width="19" transform="translate(-13.18 -8.86)"/></svg>