<svg width="800" height="600" viewBox="0 0 800 600" xmlns="http://www.w3.org/2000/svg">
  <rect width="800" height="600" fill="#DDD5C8"/>

  <!-- Score page -->
  <rect x="80" y="88" width="640" height="424" rx="2" fill="#CAC1B5" stroke="#1C1409" stroke-width="1.5" opacity="0.6"/>

  <!-- Staff 1 -->
  <line x1="136" y1="178" x2="664" y2="178" stroke="#1C1409" stroke-width="1.4"/>
  <line x1="136" y1="198" x2="664" y2="198" stroke="#1C1409" stroke-width="1.4"/>
  <line x1="136" y1="218" x2="664" y2="218" stroke="#1C1409" stroke-width="1.4"/>
  <line x1="136" y1="238" x2="664" y2="238" stroke="#1C1409" stroke-width="1.4"/>
  <line x1="136" y1="258" x2="664" y2="258" stroke="#1C1409" stroke-width="1.4"/>

  <!-- Staff 2 -->
  <line x1="136" y1="334" x2="664" y2="334" stroke="#1C1409" stroke-width="1.4"/>
  <line x1="136" y1="354" x2="664" y2="354" stroke="#1C1409" stroke-width="1.4"/>
  <line x1="136" y1="374" x2="664" y2="374" stroke="#1C1409" stroke-width="1.4"/>
  <line x1="136" y1="394" x2="664" y2="394" stroke="#1C1409" stroke-width="1.4"/>
  <line x1="136" y1="414" x2="664" y2="414" stroke="#1C1409" stroke-width="1.4"/>

  <!-- Treble clef 1 -->
  <path d="M156,270 C156,238 170,224 162,208 C152,190 142,200 148,216 C154,232 168,226 162,206 C156,180 150,162 162,148 C170,140 182,148 178,162" fill="none" stroke="#1C1409" stroke-width="2.5" stroke-linecap="round"/>

  <!-- Treble clef 2 -->
  <path d="M156,426 C156,394 170,380 162,364 C152,346 142,356 148,372 C154,388 168,382 162,362 C156,336 150,318 162,304 C170,296 182,304 178,318" fill="none" stroke="#1C1409" stroke-width="2.5" stroke-linecap="round"/>

  <!-- Bar lines -->
  <line x1="200" y1="175" x2="200" y2="262" stroke="#1C1409" stroke-width="1.5"/>
  <line x1="200" y1="331" x2="200" y2="418" stroke="#1C1409" stroke-width="1.5"/>
  <line x1="440" y1="175" x2="440" y2="262" stroke="#1C1409" stroke-width="1.2" opacity="0.5"/>
  <line x1="440" y1="331" x2="440" y2="418" stroke="#1C1409" stroke-width="1.2" opacity="0.5"/>

  <!-- Notes staff 1 -->
  <ellipse cx="236" cy="228" rx="11" ry="9" transform="rotate(-18,236,228)" fill="#1C1409"/>
  <line x1="247" y1="225" x2="247" y2="175" stroke="#1C1409" stroke-width="2"/>
  <ellipse cx="288" cy="218" rx="11" ry="9" transform="rotate(-18,288,218)" fill="#1C1409"/>
  <line x1="299" y1="215" x2="299" y2="175" stroke="#1C1409" stroke-width="2"/>
  <ellipse cx="340" cy="238" rx="11" ry="9" transform="rotate(-18,340,238)" fill="#1C1409"/>
  <line x1="351" y1="235" x2="351" y2="175" stroke="#1C1409" stroke-width="2"/>
  <!-- Half note -->
  <ellipse cx="396" cy="208" rx="11" ry="9" transform="rotate(-18,396,208)" fill="none" stroke="#1C1409" stroke-width="2"/>
  <line x1="407" y1="205" x2="407" y2="175" stroke="#1C1409" stroke-width="2"/>
  <!-- Beamed pair -->
  <ellipse cx="476" cy="228" rx="11" ry="9" transform="rotate(-18,476,228)" fill="#1C1409"/>
  <line x1="487" y1="225" x2="487" y2="178" stroke="#1C1409" stroke-width="2"/>
  <ellipse cx="524" cy="218" rx="11" ry="9" transform="rotate(-18,524,218)" fill="#1C1409"/>
  <line x1="535" y1="215" x2="535" y2="174" stroke="#1C1409" stroke-width="2"/>
  <line x1="487" y1="178" x2="535" y2="174" stroke="#1C1409" stroke-width="4"/>
  <!-- Quarter note -->
  <ellipse cx="584" cy="238" rx="11" ry="9" transform="rotate(-18,584,238)" fill="#1C1409"/>
  <line x1="595" y1="235" x2="595" y2="178" stroke="#1C1409" stroke-width="2"/>

  <!-- Notes staff 2 -->
  <ellipse cx="236" cy="384" rx="11" ry="9" transform="rotate(-18,236,384)" fill="#1C1409"/>
  <line x1="247" y1="381" x2="247" y2="331" stroke="#1C1409" stroke-width="2"/>
  <ellipse cx="304" cy="374" rx="11" ry="9" transform="rotate(-18,304,374)" fill="none" stroke="#1C1409" stroke-width="2"/>
  <line x1="315" y1="371" x2="315" y2="331" stroke="#1C1409" stroke-width="2"/>
  <ellipse cx="372" cy="394" rx="11" ry="9" transform="rotate(-18,372,394)" fill="#1C1409"/>
  <line x1="383" y1="391" x2="383" y2="331" stroke="#1C1409" stroke-width="2"/>
  <ellipse cx="480" cy="364" rx="11" ry="9" transform="rotate(-18,480,364)" fill="#1C1409"/>
  <line x1="491" y1="361" x2="491" y2="331" stroke="#1C1409" stroke-width="2"/>
  <ellipse cx="548" cy="384" rx="11" ry="9" transform="rotate(-18,548,384)" fill="#1C1409"/>
  <line x1="559" y1="381" x2="559" y2="331" stroke="#1C1409" stroke-width="2"/>

  <!-- Title line -->
  <line x1="80" y1="138" x2="720" y2="138" stroke="#1C1409" stroke-width="1" opacity="0.35"/>
  <text x="96" y="128" font-family="Arial, sans-serif" font-size="11" fill="#1C1409" opacity="0.55" letter-spacing="0.1em">TUNE — MUSIC PUBLICATION</text>

  <!-- Footer -->
  <line x1="80" y1="530" x2="720" y2="530" stroke="#1C1409" stroke-width="1" opacity="0.25"/>
  <circle cx="694" cy="116" r="7" fill="#8B2E3F" opacity="0.7"/>
</svg>
