<svg viewBox="0 0 800 500" xmlns="http://www.w3.org/2000/svg">
  <!-- Warm paper background -->
  <rect width="800" height="500" fill="#EAECF0"/>

  <!-- Left column: Large typography blocks -->
  <rect x="60" y="80" width="120" height="35" fill="none" stroke="#1A1A1A" stroke-width="1.5" opacity="0.35" rx="2"/>
  <line x1="70" y1="95" x2="170" y2="95" stroke="#1A1A1A" stroke-width="1" opacity="0.25"/>
  <line x1="70" y1="105" x2="165" y2="105" stroke="#1A1A1A" stroke-width="0.9" opacity="0.2"/>

  <rect x="60" y="145" width="120" height="28" fill="none" stroke="#1A1A1A" stroke-width="1.5" opacity="0.3"/>
  <line x1="70" y1="157" x2="170" y2="157" stroke="#1A1A1A" stroke-width="1" opacity="0.22"/>
  <line x1="70" y1="166" x2="160" y2="166" stroke="#1A1A1A" stroke-width="0.9" opacity="0.18"/>

  <rect x="60" y="205" width="120" height="32" fill="none" stroke="#1A1A1A" stroke-width="1.5" opacity="0.32"/>
  <line x1="70" y1="218" x2="170" y2="218" stroke="#1A1A1A" stroke-width="1" opacity="0.24"/>
  <line x1="70" y1="228" x2="168" y2="228" stroke="#1A1A1A" stroke-width="0.9" opacity="0.19"/>

  <rect x="60" y="270" width="120" height="30" fill="none" stroke="#1A1A1A" stroke-width="1.5" opacity="0.28"/>
  <line x1="70" y1="282" x2="170" y2="282" stroke="#1A1A1A" stroke-width="1" opacity="0.2"/>
  <line x1="70" y1="291" x2="165" y2="291" stroke="#1A1A1A" stroke-width="0.9" opacity="0.16"/>

  <!-- Center column: Medium typography blocks with accent -->
  <rect x="260" y="100" width="110" height="32" fill="none" stroke="#1A1A1A" stroke-width="1.5" opacity="0.4" rx="1"/>
  <line x1="270" y1="114" x2="360" y2="114" stroke="#1A1A1A" stroke-width="1.1" opacity="0.3"/>
  <line x1="270" y1="123" x2="355" y2="123" stroke="#1A1A1A" stroke-width="1" opacity="0.22"/>

  <rect x="260" y="165" width="110" height="28" fill="none" stroke="#3B6FC2" stroke-width="1.8" opacity="0.45"/>
  <line x1="270" y1="177" x2="360" y2="177" stroke="#3B6FC2" stroke-width="1.2" opacity="0.35"/>
  <line x1="270" y1="185" x2="355" y2="185" stroke="#1A1A1A" stroke-width="1" opacity="0.2"/>

  <rect x="260" y="225" width="110" height="30" fill="none" stroke="#1A1A1A" stroke-width="1.5" opacity="0.35"/>
  <line x1="270" y1="238" x2="360" y2="238" stroke="#1A1A1A" stroke-width="1" opacity="0.26"/>
  <line x1="270" y1="247" x2="350" y2="247" stroke="#1A1A1A" stroke-width="0.9" opacity="0.2"/>

  <rect x="260" y="290" width="110" height="35" fill="none" stroke="#1A1A1A" stroke-width="1.5" opacity="0.32"/>
  <line x1="270" y1="305" x2="360" y2="305" stroke="#1A1A1A" stroke-width="1" opacity="0.24"/>
  <line x1="270" y1="315" x2="358" y2="315" stroke="#1A1A1A" stroke-width="0.9" opacity="0.18"/>

  <!-- Right column: Smaller, varied blocks -->
  <rect x="460" y="85" width="95" height="28" fill="none" stroke="#1A1A1A" stroke-width="1.5" opacity="0.28"/>
  <line x1="468" y1="97" x2="547" y2="97" stroke="#1A1A1A" stroke-width="0.95" opacity="0.2"/>
  <line x1="468" y1="105" x2="540" y2="105" stroke="#1A1A1A" stroke-width="0.85" opacity="0.15"/>

  <rect x="460" y="130" width="95" height="25" fill="none" stroke="#1A1A1A" stroke-width="1.5" opacity="0.3"/>
  <line x1="468" y1="141" x2="547" y2="141" stroke="#1A1A1A" stroke-width="0.95" opacity="0.22"/>
  <line x1="468" y1="148" x2="543" y2="148" stroke="#1A1A1A" stroke-width="0.85" opacity="0.17"/>

  <rect x="460" y="175" width="95" height="32" fill="none" stroke="#5A8AD4" stroke-width="1.6" opacity="0.38"/>
  <line x1="468" y1="189" x2="547" y2="189" stroke="#5A8AD4" stroke-width="1" opacity="0.28"/>
  <line x1="468" y1="198" x2="540" y2="198" stroke="#1A1A1A" stroke-width="0.9" opacity="0.18"/>

  <rect x="460" y="230" width="95" height="28" fill="none" stroke="#1A1A1A" stroke-width="1.5" opacity="0.26"/>
  <line x1="468" y1="242" x2="547" y2="242" stroke="#1A1A1A" stroke-width="0.95" opacity="0.19"/>
  <line x1="468" y1="250" x2="538" y2="250" stroke="#1A1A1A" stroke-width="0.85" opacity="0.14"/>

  <rect x="460" y="280" width="95" height="30" fill="none" stroke="#1A1A1A" stroke-width="1.5" opacity="0.29"/>
  <line x1="468" y1="293" x2="547" y2="293" stroke="#1A1A1A" stroke-width="0.95" opacity="0.21"/>
  <line x1="468" y1="302" x2="542" y2="302" stroke="#1A1A1A" stroke-width="0.85" opacity="0.16"/>

  <!-- Far right column: Minimal accent blocks -->
  <rect x="630" y="110" width="80" height="24" fill="none" stroke="#1A1A1A" stroke-width="1.5" opacity="0.22"/>
  <line x1="638" y1="120" x2="702" y2="120" stroke="#1A1A1A" stroke-width="0.9" opacity="0.16"/>

  <rect x="630" y="165" width="80" height="26" fill="none" stroke="#1A1A1A" stroke-width="1.5" opacity="0.24"/>
  <line x1="638" y1="176" x2="702" y2="176" stroke="#1A1A1A" stroke-width="0.9" opacity="0.18"/>

  <rect x="630" y="220" width="80" height="28" fill="none" stroke="#1A1A1A" stroke-width="1.5" opacity="0.25"/>
  <line x1="638" y1="232" x2="702" y2="232" stroke="#1A1A1A" stroke-width="0.9" opacity="0.19"/>

  <rect x="630" y="275" width="80" height="25" fill="none" stroke="#1A1A1A" stroke-width="1.5" opacity="0.23"/>
  <line x1="638" y1="285" x2="702" y2="285" stroke="#1A1A1A" stroke-width="0.9" opacity="0.17"/>

  <!-- Subtle vertical guide lines to show systematic arrangement -->
  <line x1="200" y1="70" x2="200" y2="340" stroke="#1A1A1A" stroke-width="0.8" opacity="0.08" stroke-dasharray="3,4"/>
  <line x1="400" y1="70" x2="400" y2="340" stroke="#1A1A1A" stroke-width="0.8" opacity="0.08" stroke-dasharray="3,4"/>
  <line x1="600" y1="70" x2="600" y2="340" stroke="#1A1A1A" stroke-width="0.8" opacity="0.08" stroke-dasharray="3,4"/>

  <!-- Accent dots showing rhythm -->
  <circle cx="85" cy="340" r="2" fill="#3B6FC2" opacity="0.3"/>
  <circle cx="315" cy="340" r="2.5" fill="#3B6FC2" opacity="0.4"/>
  <circle cx="507" cy="340" r="2" fill="#5A8AD4" opacity="0.32"/>
  <circle cx="670" cy="340" r="1.8" fill="#1A1A1A" opacity="0.2"/>
</svg>