<svg viewBox="0 0 234.07 313.09" xmlns="http://www.w3.org/2000/svg"><g fill="none" stroke="#fff" stroke-miterlimit="10"><g stroke-width="1.06"><path d="m95.29 183.65a28.13 28.13 0 0 0 -5.76-.57q-10.35 0-16 5.87t-7.15 15.9h42.62"/><path d="m95.29 204.85v-21.2"/><path d="m69.07 222.57q.63 15.43 10.74 21.68a27.27 27.27 0 0 0 14.81 3.86q9.18 0 14.92-4.71a22.68 22.68 0 0 0 5.53-7.07h27.42q-1.08 9.15-10 18.57c-9.2 10-22.07 16.26-38.63 16.26-13.67 0-25.75-5.49-36.2-13.92s-15.66-22.13-15.66-41.13v55.05h192"/></g><path d="m234.07 222.41h-90.18v.16h-143.89" stroke-width=".53"/><path d="m95.29 313.09v-313.08" stroke-width=".53"/><path d="m38.63 0 3.37 216.11c0-17.79 1.32-31.44 10.76-40.93s21.68-14.25 36.74-14.25c2 0 3.88.09 5.77.25" stroke-width="1.06"/></g></svg>