<svg viewBox="0 0 203.72 264.98" xmlns="http://www.w3.org/2000/svg"><path d="m0 0h203.72v264.98h-203.72z" fill="#f3ae3d"/><g fill="none" stroke="#fff" stroke-miterlimit="10" stroke-width=".82"><path d="m112.79 115.86a28.13 28.13 0 0 0 -5.76-.57q-10.35 0-16 5.87t-7.16 15.9"/><path d="m86.57 154.78q.63 15.47 10.74 21.68a27.29 27.29 0 0 0 14.82 3.87q9.16 0 14.91-4.72a22.42 22.42 0 0 0 5.53-7.07h27.43q-1.08 9.15-10 18.57c-9.2 10-22.06 16.26-38.63 16.26-13.67 0-25.75-5.49-36.2-13.91s-15.68-22.14-15.68-41.13"/><path d="m112.79 245.3v-225.82"/><path d="m59.52 245.3v-225.82"/><path d="m59.52 148.33c0-17.8 1.33-31.45 10.76-40.94s21.72-14.25 36.72-14.25c2 0 3.89.1 5.77.25"/><path d="m137.97 137.06h-54.13"/><path d="m59.73 154.62h-49.09"/><path d="m192.1 154.62h-105.53"/><path d="m192.1 203.37h-181.46"/></g></svg>